<svg width="24" height="24" viewBox="0 0 24 24" fill="none" xmlns="http://www.w3.org/2000/svg">
<path d="M22.2375 14.2402C22.2375 14.2308 22.2281 14.2308 22.2281 14.2214C22.1676 14.0511 22.0956 13.8851 22.0125 13.7245L18.1219 4.8558C18.0829 4.7717 18.0289 4.69545 17.9625 4.6308C17.6838 4.35159 17.3528 4.13007 16.9885 3.97894C16.6241 3.8278 16.2335 3.75 15.839 3.75C15.4446 3.75 15.054 3.8278 14.6896 3.97894C14.3252 4.13007 13.9943 4.35159 13.7156 4.6308C13.6469 4.69983 13.5925 4.78174 13.5555 4.87182C13.5185 4.96191 13.4996 5.05841 13.5 5.1558V7.87455H10.5V5.1558C10.5003 5.05841 10.4815 4.96191 10.4445 4.87182C10.4075 4.78174 10.353 4.69983 10.2844 4.6308C10.0057 4.35159 9.67472 4.13007 9.31035 3.97894C8.94598 3.8278 8.55539 3.75 8.16092 3.75C7.76645 3.75 7.37585 3.8278 7.01148 3.97894C6.64711 4.13007 6.31613 4.35159 6.03748 4.6308C5.97107 4.69545 5.91705 4.7717 5.8781 4.8558L1.98748 13.7152C1.90436 13.8757 1.83232 14.0417 1.77185 14.212C1.77185 14.2214 1.76248 14.2214 1.76248 14.2308C1.54151 14.8491 1.45852 15.5083 1.51935 16.1621C1.58018 16.8158 1.78334 17.4484 2.11458 18.0153C2.44582 18.5823 2.89712 19.0698 3.4368 19.4438C3.97648 19.8178 4.59147 20.0692 5.23861 20.1803C5.88575 20.2914 6.54936 20.2595 7.18288 20.0869C7.81639 19.9144 8.40446 19.6052 8.90582 19.1812C9.40718 18.7572 9.80968 18.2286 10.0851 17.6326C10.3605 17.0365 10.5021 16.3874 10.5 15.7308V9.37455H13.5V15.7308C13.4965 16.3878 13.637 17.0376 13.9114 17.6345C14.1859 18.2314 14.5878 18.7609 15.0888 19.186C15.5898 19.611 16.1777 19.9212 16.8114 20.0947C17.4451 20.2682 18.109 20.3009 18.7567 20.1904C19.4043 20.0799 20.0199 19.8289 20.5602 19.4551C21.1005 19.0813 21.5524 18.5938 21.8841 18.0267C22.2159 17.4596 22.4194 16.8267 22.4804 16.1726C22.5415 15.5184 22.4586 14.8589 22.2375 14.2402ZM8.82185 16.7714C8.54295 17.5076 7.98585 18.1047 7.27071 18.4338C6.55557 18.763 5.73971 18.7978 4.9991 18.5309C4.25849 18.2639 3.6525 17.7165 3.31184 17.0068C2.97118 16.2971 2.92315 15.4819 3.1781 14.737L3.34685 14.3527C3.65914 13.761 4.16027 13.2906 4.77058 13.0164C5.38088 12.7423 6.06532 12.6799 6.7151 12.8394C7.36488 12.9989 7.9427 13.371 8.3567 13.8966C8.7707 14.4222 8.99713 15.0711 8.99998 15.7402C9.00129 16.0917 8.941 16.4407 8.82185 16.7714ZM19.0219 18.5714C18.5687 18.7356 18.0826 18.7882 17.6048 18.7247C17.127 18.6612 16.6715 18.4835 16.2769 18.2066C15.8823 17.9298 15.5603 17.5619 15.338 17.1342C15.1157 16.7065 14.9998 16.2316 15 15.7495C15.0028 15.0805 15.2293 14.4316 15.6433 13.906C16.0573 13.3804 16.6351 13.0083 17.2849 12.8488C17.9346 12.6893 18.6191 12.7516 19.2294 13.0258C19.8397 13.3 20.3408 13.7703 20.6531 14.362L20.8219 14.7464C21.0874 15.4925 21.0472 16.3133 20.71 17.0298C20.3728 17.7464 19.766 18.3005 19.0219 18.5714Z" fill="#2C3E50"/>
</svg>
